<svg id="Layer_1" data-name="Layer 1" xmlns="http://www.w3.org/2000/svg" xmlns:xlink="http://www.w3.org/1999/xlink" viewBox="0 0 374.4 104.44"><defs><style>.cls-1{fill:url(#linear-gradient);}.cls-2{fill:url(#linear-gradient-2);}.cls-3{fill:url(#linear-gradient-3);}.cls-4{fill:url(#linear-gradient-4);}.cls-5{fill:url(#linear-gradient-5);}.cls-6{fill:url(#linear-gradient-6);}.cls-7{fill:url(#linear-gradient-7);}.cls-8{fill:url(#linear-gradient-8);}.cls-9{fill:url(#linear-gradient-9);}.cls-10{fill:url(#linear-gradient-10);}.cls-11{fill:url(#linear-gradient-11);}.cls-12{fill:url(#linear-gradient-12);}.cls-13{fill:url(#linear-gradient-13);}</style><linearGradient id="linear-gradient" x1="16.68" y1="52.22" x2="58.35" y2="52.22" gradientUnits="userSpaceOnUse"><stop offset="0" stop-color="#662d91"/><stop offset="1" stop-color="#9e1f63"/></linearGradient><linearGradient id="linear-gradient-2" x1="74.81" y1="52.47" x2="95.23" y2="52.47" xlink:href="#linear-gradient"/><linearGradient id="linear-gradient-3" x1="98.26" y1="52.47" x2="124.07" y2="52.47" xlink:href="#linear-gradient"/><linearGradient id="linear-gradient-4" x1="126.15" y1="52.47" x2="149.81" y2="52.47" xlink:href="#linear-gradient"/><linearGradient id="linear-gradient-5" x1="151.88" y1="52.47" x2="173.5" y2="52.47" xlink:href="#linear-gradient"/><linearGradient id="linear-gradient-6" x1="173.53" y1="52.47" x2="194.83" y2="52.47" xlink:href="#linear-gradient"/><linearGradient id="linear-gradient-7" x1="204.28" y1="52.47" x2="223.49" y2="52.47" xlink:href="#linear-gradient"/><linearGradient id="linear-gradient-8" x1="222.19" y1="52.47" x2="245.85" y2="52.47" xlink:href="#linear-gradient"/><linearGradient id="linear-gradient-9" x1="247.93" y1="52.47" x2="269.54" y2="52.47" xlink:href="#linear-gradient"/><linearGradient id="linear-gradient-10" x1="271.72" y1="52.47" x2="294.61" y2="52.47" xlink:href="#linear-gradient"/><linearGradient id="linear-gradient-11" x1="296.05" y1="52.47" x2="302.93" y2="52.47" xlink:href="#linear-gradient"/><linearGradient id="linear-gradient-12" x1="307.23" y1="52.47" x2="329.51" y2="52.47" xlink:href="#linear-gradient"/><linearGradient id="linear-gradient-13" x1="332.47" y1="52.47" x2="356.48" y2="52.47" xlink:href="#linear-gradient"/></defs><title>parking-logo</title><path class="cls-1" d="M37,25.53a21.07,21.07,0,0,1,21,17.34,20.71,20.71,0,0,1-1.89,12.35,62,62,0,0,1-7.78,12.33A102.67,102.67,0,0,1,39,78.06c-1.12,1.11-1.88,1.13-3,0a93.56,93.56,0,0,1-15.4-19.38A29.13,29.13,0,0,1,17,49.52a19.1,19.1,0,0,1,1.85-12.34A20.56,20.56,0,0,1,33.24,26a11.22,11.22,0,0,1,1.41-.24C35.6,25.65,36.56,25.58,37,25.53Zm.49,29a8.2,8.2,0,1,0-8.19-8.19A8.22,8.22,0,0,0,37.53,54.57Z"/><path class="cls-2" d="M91.67,48.17A21.32,21.32,0,0,0,89.48,47a18.55,18.55,0,0,0-2.15-.8A8.07,8.07,0,0,0,85,45.88a3.23,3.23,0,0,0-1.45.28,1,1,0,0,0-.56.94,1.2,1.2,0,0,0,.56,1,5.9,5.9,0,0,0,1.61.69l2.48.77a22.55,22.55,0,0,1,4,1.61,7,7,0,0,1,2.61,2.32,6.86,6.86,0,0,1,.92,3.76A8,8,0,0,1,94.42,61a6.56,6.56,0,0,1-2.19,2.42,9.26,9.26,0,0,1-3.07,1.31,14.8,14.8,0,0,1-3.45.41A20.89,20.89,0,0,1,82,64.8a25.2,25.2,0,0,1-3.79-1,19.45,19.45,0,0,1-3.35-1.53l3-6a28.2,28.2,0,0,0,2.58,1.38,21.43,21.43,0,0,0,2.59.95,10.12,10.12,0,0,0,2.87.42,3,3,0,0,0,1.57-.29.85.85,0,0,0,.44-.75,1.26,1.26,0,0,0-.77-1.14A11.31,11.31,0,0,0,85,56c-.84-.25-1.76-.53-2.77-.86a15.48,15.48,0,0,1-3.59-1.66,6,6,0,0,1-2.08-2.21,6.54,6.54,0,0,1-.67-3.1,7.84,7.84,0,0,1,1.3-4.62,8.28,8.28,0,0,1,3.44-2.82,11.05,11.05,0,0,1,4.6-1,14.31,14.31,0,0,1,3.54.44A21.59,21.59,0,0,1,92,41.3c1,.42,1.87.82,2.63,1.19Z"/><path class="cls-3" d="M117.19,65V51.8L113,61.08h-3.67l-4.2-9.28V65H98.26V40h7.51l5.39,11.77L116.59,40h7.48V65Z"/><path class="cls-4" d="M134.15,40h7.69l8,25h-7l-1.29-4.9h-7.07l-1.3,4.9h-7Zm6.17,15.54L138,46.69l-2.32,8.81Z"/><path class="cls-5" d="M151.88,65V40h11.5a7.64,7.64,0,0,1,3.38.74,8.27,8.27,0,0,1,2.68,2,9.29,9.29,0,0,1,1.75,2.8,8.48,8.48,0,0,1,.62,3.14,9.35,9.35,0,0,1-.43,2.79,8.42,8.42,0,0,1-1.23,2.45,8.62,8.62,0,0,1-1.94,1.92L173.5,65H166l-4.4-7.69h-2.79V65Zm6.88-13.68h4.34a1.28,1.28,0,0,0,.81-.32,2.4,2.4,0,0,0,.65-.91,3.55,3.55,0,0,0,.26-1.45,3.13,3.13,0,0,0-.3-1.46,2.39,2.39,0,0,0-.74-.9,1.48,1.48,0,0,0-.86-.32h-4.16Z"/><path class="cls-6" d="M194.83,46h-7.19V65h-6.88V46h-7.23V40h21.3Z"/><path class="cls-7" d="M204.28,65V40h10.79a7.64,7.64,0,0,1,3.38.74,8.38,8.38,0,0,1,2.68,2,9.49,9.49,0,0,1,1.75,2.8,8.47,8.47,0,0,1,.61,3.14,8.83,8.83,0,0,1-1,4.2,8.69,8.69,0,0,1-2.89,3.22,7.47,7.47,0,0,1-4.32,1.25h-4.09V65Zm6.87-13.68h3.63a1.46,1.46,0,0,0,.82-.25,1.88,1.88,0,0,0,.65-.84,4.12,4.12,0,0,0,.26-1.59,3.64,3.64,0,0,0-.3-1.64,1.79,1.79,0,0,0-.74-.81,1.88,1.88,0,0,0-.86-.23h-3.46Z"/><path class="cls-8" d="M230.19,40h7.69l8,25h-7l-1.3-4.9H230.5L229.21,65h-7Zm6.17,15.54L234,46.69l-2.33,8.81Z"/><path class="cls-9" d="M247.93,65V40h11.49a7.71,7.71,0,0,1,3.39.74,8.34,8.34,0,0,1,2.67,2,9.1,9.1,0,0,1,1.75,2.8,8.48,8.48,0,0,1,.62,3.14,9,9,0,0,1-.43,2.79,8.42,8.42,0,0,1-1.23,2.45,8.62,8.62,0,0,1-1.94,1.92l5.29,9.2H262l-4.4-7.69H254.8V65Zm6.87-13.68h4.34A1.28,1.28,0,0,0,260,51a2.29,2.29,0,0,0,.65-.91,3.54,3.54,0,0,0,.27-1.45,3.13,3.13,0,0,0-.3-1.46,2.49,2.49,0,0,0-.74-.9A1.53,1.53,0,0,0,259,46H254.8Z"/><path class="cls-10" d="M271.72,65V40h6.88v9.52L286.22,40H294l-9.09,11.21L294.61,65h-7.9l-6.21-9.2-1.9,2V65Z"/><path class="cls-11" d="M296.05,65V40h6.88V65Z"/><path class="cls-12" d="M314.1,52.68V65h-6.87V40h5.36l10.05,12.72V40h6.87V65h-5.46Z"/><path class="cls-13" d="M344.64,65.17A12.54,12.54,0,0,1,340,64.3a11.29,11.29,0,0,1-3.9-2.54,12,12,0,0,1-2.66-4,14.48,14.48,0,0,1-1-5.45,12.05,12.05,0,0,1,1-4.9,12.5,12.5,0,0,1,6.8-6.63,13.35,13.35,0,0,1,5.05-.95,12.91,12.91,0,0,1,6.13,1.46,9.52,9.52,0,0,1,4.09,4l-5.11,3.92a5.71,5.71,0,0,0-2.22-2.38,6,6,0,0,0-3.14-.9,5.16,5.16,0,0,0-2.26.49A5.52,5.52,0,0,0,341,47.75a6.29,6.29,0,0,0-1.16,2.1,8.34,8.34,0,0,0-.41,2.66,8.06,8.06,0,0,0,.43,2.68,6.14,6.14,0,0,0,1.18,2.06,5.22,5.22,0,0,0,1.81,1.34,5.7,5.7,0,0,0,2.37.48,6.55,6.55,0,0,0,3.17-.83,9.3,9.3,0,0,0,2.75-2.35v6.7A9.36,9.36,0,0,1,344.64,65.17Zm6.17-8.57h-4.62V51.66h10.29V65h-5.67Z"/></svg>