<?xml version="1.0" encoding="utf-8"?>
<!-- Generator: Adobe Illustrator 23.1.0, SVG Export Plug-In . SVG Version: 6.00 Build 0)  -->
<svg version="1.1" id="Layer_1" xmlns="http://www.w3.org/2000/svg" xmlns:xlink="http://www.w3.org/1999/xlink" x="0px" y="0px"
	 viewBox="0 0 231.7 104.4" style="enable-background:new 0 0 231.7 104.4;" xml:space="preserve">
<style type="text/css">
	.st0{fill:url(#SVGID_1_);}
	.st1{fill:#FFFFFF;}
</style>
<title>parking-logo</title>
<linearGradient id="SVGID_1_" gradientUnits="userSpaceOnUse" x1="10.9601" y1="51.672" x2="60.3601" y2="51.672" gradientTransform="matrix(1 0 0 -1 0 103.8898)">
	<stop  offset="0" style="stop-color:#662D91"/>
	<stop  offset="1" style="stop-color:#9E1F63"/>
</linearGradient>
<path class="st0" d="M35.1,20.6c12.2-0.2,22.7,8.5,24.9,20.5c0.8,5,0,10.1-2.2,14.6c-2.5,5.2-5.6,10.1-9.2,14.6
	c-3.4,4.4-7.1,8.6-11.1,12.5c-1.3,1.3-2.2,1.3-3.5,0c-7.1-6.8-13.2-14.6-18.3-23c-2-3.3-3.5-7-4.3-10.8c-0.9-5-0.2-10.1,2.2-14.6
	c3.3-6.8,9.6-11.7,17-13.3c0.6-0.1,1.1-0.2,1.7-0.3C33.4,20.7,34.5,20.6,35.1,20.6z M35.7,55c5.4,0,9.7-4.3,9.7-9.7
	s-4.3-9.7-9.7-9.7c-5.4,0-9.7,4.3-9.7,9.7c0,0,0,0,0,0C26,50.6,30.3,55,35.7,55z"/>
<path class="st1" d="M84.4,33.7c-0.7-0.4-1.4-0.8-2.2-1.2c-0.7-0.3-1.4-0.6-2.2-0.8c-0.7-0.2-1.5-0.3-2.3-0.4c-0.5,0-1,0.1-1.4,0.3
	c-0.4,0.2-0.6,0.5-0.6,0.9c0,0.4,0.2,0.8,0.6,1c0.5,0.3,1,0.5,1.6,0.7l2.5,0.8c1.4,0.4,2.7,0.9,4,1.6c2.3,1.1,3.8,3.5,3.6,6.1
	c0,1.3-0.2,2.6-0.8,3.8c-0.5,1-1.3,1.8-2.2,2.4c-0.9,0.6-2,1.1-3.1,1.3c-1.1,0.3-2.3,0.4-3.5,0.4c-1.3,0-2.5-0.1-3.8-0.4
	c-1.3-0.2-2.6-0.6-3.8-1c-1.2-0.4-2.3-0.9-3.3-1.5l3-6c0.8,0.5,1.7,1,2.6,1.4c0.8,0.4,1.7,0.7,2.6,1c0.9,0.3,1.9,0.4,2.9,0.4
	c0.5,0,1.1-0.1,1.6-0.3c0.3-0.1,0.4-0.4,0.4-0.8c0-0.5-0.3-1-0.8-1.1c-0.6-0.3-1.3-0.6-2-0.8c-0.8-0.3-1.8-0.5-2.8-0.9
	c-1.3-0.4-2.5-1-3.6-1.7c-0.9-0.5-1.6-1.3-2.1-2.2c-0.5-1-0.7-2-0.7-3.1c-0.1-1.7,0.4-3.3,1.3-4.7c0.9-1.2,2.1-2.2,3.4-2.8
	c1.4-0.7,3-1,4.6-1c1.2,0,2.4,0.1,3.6,0.4c1.1,0.3,2.2,0.6,3.2,1.1c1,0.4,1.9,0.8,2.6,1.2L84.4,33.7z"/>
<path class="st1" d="M109.9,50.6V37.4l-4.2,9.3h-3.7l-4.2-9.3v13.2H91v-25h7.5l5.4,11.8l5.4-11.8h7.5v25H109.9z"/>
<path class="st1" d="M126.9,25.5h7.7l8,25h-7l-1.3-4.9h-7.1l-1.3,4.9h-7L126.9,25.5z M133.1,41.1l-2.3-8.8l-2.3,8.8H133.1z"/>
<path class="st1" d="M144.6,50.6v-25h11.5c1.2,0,2.3,0.2,3.4,0.7c1,0.5,1.9,1.2,2.7,2c0.7,0.8,1.3,1.8,1.7,2.8
	c0.4,1,0.6,2.1,0.6,3.1c0,0.9-0.1,1.9-0.4,2.8c-0.3,0.9-0.7,1.7-1.2,2.5c-0.5,0.7-1.2,1.4-1.9,1.9l5.3,9.2h-7.6l-4.4-7.7h-2.8v7.7
	H144.6z M151.5,36.9h4.3c0.3,0,0.6-0.1,0.8-0.3c0.3-0.2,0.5-0.6,0.6-0.9c0.2-0.5,0.3-0.9,0.3-1.4c0-0.5-0.1-1-0.3-1.5
	c-0.2-0.3-0.4-0.7-0.7-0.9c-0.2-0.2-0.6-0.3-0.9-0.3h-4.2V36.9z"/>
<path class="st1" d="M187.6,31.5h-7.2v19h-6.9v-19h-7.2v-6h21.3V31.5z"/>
<path class="st1" d="M68.5,83.5v-25h10.8c1.2,0,2.3,0.2,3.4,0.7c1,0.5,1.9,1.2,2.7,2c0.7,0.8,1.3,1.7,1.7,2.7c0.4,1,0.6,2.1,0.6,3.1
	c0,3-1.5,5.7-3.9,7.4c-1.3,0.8-2.8,1.3-4.3,1.3h-4.1v7.7L68.5,83.5z M75.4,69.8H79c0.3,0,0.6-0.1,0.8-0.3c0.3-0.2,0.5-0.5,0.7-0.8
	c0.2-0.5,0.3-1,0.3-1.6c0-0.6-0.1-1.1-0.3-1.6c-0.3-0.6-0.9-1-1.6-1h-3.4V69.8z"/>
<path class="st1" d="M94.4,58.5h7.7l8,25h-7l-1.3-4.9h-7.1l-1.3,4.9h-7L94.4,58.5z M100.6,74l-2.3-8.8L96,74H100.6z"/>
<path class="st1" d="M112.2,83.5v-25h11.5c1.2,0,2.3,0.2,3.4,0.7c1,0.5,1.9,1.2,2.7,2c0.7,0.8,1.3,1.7,1.8,2.7
	c0.4,1,0.6,2.1,0.6,3.1c0,0.9-0.1,1.9-0.4,2.8c-0.3,0.9-0.7,1.7-1.2,2.4c-0.5,0.7-1.2,1.4-1.9,1.9l5.3,9.2h-7.6l-4.4-7.7H119v7.7
	L112.2,83.5z M119,69.8h4.3c0.3,0,0.6-0.1,0.8-0.3c0.3-0.3,0.5-0.6,0.7-0.9c0.2-0.5,0.3-0.9,0.3-1.4c0-0.5-0.1-1-0.3-1.5
	c-0.2-0.4-0.4-0.7-0.7-0.9c-0.2-0.2-0.5-0.3-0.9-0.3h-4.2L119,69.8z"/>
<path class="st1" d="M136,83.5v-25h6.9V68l7.6-9.5h7.8l-9.1,11.2l9.7,13.8H151l-6.2-9.2l-1.9,2v7.2L136,83.5z"/>
<path class="st1" d="M160.3,83.5v-25h6.9v25H160.3z"/>
<path class="st1" d="M178.4,71.2v12.3h-6.9v-25h5.4l10,12.7V58.5h6.9v25h-5.5L178.4,71.2z"/>
<path class="st1" d="M208.9,83.7c-1.6,0-3.2-0.3-4.6-0.9c-1.5-0.6-2.8-1.4-3.9-2.5c-1.2-1.2-2.1-2.5-2.7-4.1c-0.7-1.7-1-3.6-1-5.4
	c0-1.7,0.3-3.4,1-4.9c0.6-1.5,1.6-2.9,2.7-4c1.2-1.1,2.6-2,4.1-2.7c1.6-0.7,3.3-1,5-1c2.1,0,4.2,0.5,6.1,1.5c1.7,0.9,3.2,2.3,4.1,4
	l-5.1,3.9c-0.5-1-1.3-1.8-2.2-2.4c-0.9-0.6-2-0.9-3.1-0.9c-0.8,0-1.6,0.2-2.3,0.5c-0.7,0.3-1.3,0.8-1.8,1.4
	c-0.5,0.6-0.9,1.3-1.2,2.1c-0.3,0.9-0.4,1.8-0.4,2.7c0,0.9,0.1,1.8,0.4,2.7c0.3,0.8,0.7,1.5,1.2,2.1c0.5,0.6,1.1,1,1.8,1.3
	c0.7,0.3,1.5,0.5,2.4,0.5c1.1,0,2.2-0.3,3.2-0.8c1.1-0.6,2-1.4,2.8-2.3v6.7C213.7,82.8,211.3,83.7,208.9,83.7z M215.1,75.1h-4.6
	v-4.9h10.3v13.3h-5.7V75.1z"/>
</svg>
