<svg id="Layer_1" data-name="Layer 1" xmlns="http://www.w3.org/2000/svg" xmlns:xlink="http://www.w3.org/1999/xlink" viewBox="0 0 374.4 104.44"><defs><style>.cls-1{fill:url(#linear-gradient);}.cls-2{font-size:35.26px;fill:#231f20;font-family:Raleway-Black, Raleway;font-weight:800;}.cls-3{letter-spacing:-0.01em;}.cls-4{letter-spacing:-0.03em;}.cls-5{letter-spacing:-0.05em;}</style><linearGradient id="linear-gradient" x1="16.68" y1="52.22" x2="58.35" y2="52.22" gradientUnits="userSpaceOnUse"><stop offset="0" stop-color="#662d91"/><stop offset="1" stop-color="#9e1f63"/></linearGradient></defs><title>parking-logo</title><path class="cls-1" d="M37,25.53a21.07,21.07,0,0,1,21,17.34,20.71,20.71,0,0,1-1.89,12.35,62,62,0,0,1-7.78,12.33A102.67,102.67,0,0,1,39,78.06c-1.12,1.11-1.88,1.13-3,0a93.56,93.56,0,0,1-15.4-19.38A29.13,29.13,0,0,1,17,49.52a19.1,19.1,0,0,1,1.85-12.34A20.54,20.54,0,0,1,33.24,26a11.22,11.22,0,0,1,1.41-.24C35.6,25.65,36.56,25.58,37,25.53Zm.49,29a8.2,8.2,0,1,0-8.19-8.19A8.22,8.22,0,0,0,37.53,54.57Z"/><text class="cls-2" transform="translate(74.35 64.99)">SMA<tspan class="cls-3" x="75.38" y="0">R</tspan><tspan class="cls-4" x="98.83" y="0">T</tspan><tspan x="119.84" y="0"> </tspan><tspan class="cls-5" x="127.77" y="0">P</tspan><tspan x="147.91" y="0">ARKING</tspan></text></svg>