<svg id="Layer_1" data-name="Layer 1" xmlns="http://www.w3.org/2000/svg" xmlns:xlink="http://www.w3.org/1999/xlink" viewBox="0 0 231.68 104.44"><defs><style>.cls-1{fill:url(#linear-gradient);}</style><linearGradient id="linear-gradient" x1="10.95" y1="52.22" x2="60.35" y2="52.22" gradientUnits="userSpaceOnUse"><stop offset="0" stop-color="#662d91"/><stop offset="1" stop-color="#9e1f63"/></linearGradient></defs><title>parking-logo</title><path class="cls-1" d="M35.09,20.59A25,25,0,0,1,60,41.14a24.59,24.59,0,0,1-2.24,14.63,74.62,74.62,0,0,1-9.23,14.62,122.7,122.7,0,0,1-11.1,12.46c-1.33,1.32-2.24,1.34-3.54,0a111.32,111.32,0,0,1-18.26-23A34.56,34.56,0,0,1,11.34,49,22.62,22.62,0,0,1,13.53,34.4a24.36,24.36,0,0,1,17-13.27,13.56,13.56,0,0,1,1.67-.29C33.38,20.72,34.51,20.64,35.09,20.59ZM35.67,55A9.71,9.71,0,1,0,26,45.29,9.72,9.72,0,0,0,35.67,55Z"/><path d="M84.41,33.75a23.8,23.8,0,0,0-2.19-1.15,19.8,19.8,0,0,0-2.15-.79,8,8,0,0,0-2.29-.35,3.23,3.23,0,0,0-1.45.28,1,1,0,0,0-.56.94,1.17,1.17,0,0,0,.56,1,6,6,0,0,0,1.61.7l2.48.77a21.27,21.27,0,0,1,4,1.61A6.19,6.19,0,0,1,88,42.85a7.88,7.88,0,0,1-.81,3.75A6.44,6.44,0,0,1,85,49a9.42,9.42,0,0,1-3.06,1.31,14.81,14.81,0,0,1-3.46.4,20,20,0,0,1-3.76-.37,24.34,24.34,0,0,1-3.79-1,19.81,19.81,0,0,1-3.35-1.53l3-6a25.61,25.61,0,0,0,2.57,1.37,20.39,20.39,0,0,0,2.59,1,10.14,10.14,0,0,0,2.88.42,3,3,0,0,0,1.56-.29.86.86,0,0,0,.45-.75,1.24,1.24,0,0,0-.78-1.14,11,11,0,0,0-2-.77c-.83-.25-1.76-.53-2.77-.86a16.11,16.11,0,0,1-3.59-1.66,6,6,0,0,1-2.08-2.21,6.54,6.54,0,0,1-.67-3.1A7.84,7.84,0,0,1,70,29.14a8.27,8.27,0,0,1,3.44-2.82,11.09,11.09,0,0,1,4.6-1,14,14,0,0,1,3.55.44,23.09,23.09,0,0,1,3.2,1.07c1,.43,1.88.83,2.63,1.2Z"/><path d="M109.93,50.57V37.38l-4.19,9.27h-3.67l-4.19-9.27V50.57H91v-25h7.51l5.4,11.78,5.42-11.78h7.48v25Z"/><path d="M126.89,25.53h7.69l8,25h-7l-1.3-4.9H127.2l-1.29,4.9h-7Zm6.17,15.55-2.32-8.81-2.33,8.81Z"/><path d="M144.63,50.57v-25h11.49a7.86,7.86,0,0,1,3.39.74,8.67,8.67,0,0,1,2.68,2,9.26,9.26,0,0,1,1.74,2.8,8.44,8.44,0,0,1,.62,3.14,9.22,9.22,0,0,1-.42,2.78,8.57,8.57,0,0,1-1.24,2.45A8.66,8.66,0,0,1,161,41.37l5.29,9.2H158.7l-4.41-7.69H151.5v7.69Zm6.87-13.68h4.34a1.28,1.28,0,0,0,.81-.32,2.33,2.33,0,0,0,.65-.92,3.49,3.49,0,0,0,.27-1.44,3.21,3.21,0,0,0-.3-1.47,2.54,2.54,0,0,0-.74-.89,1.44,1.44,0,0,0-.87-.32H151.5Z"/><path d="M187.57,31.53h-7.19v19H173.5v-19h-7.22v-6h21.29Z"/><path d="M68.52,83.53v-25H79.31a7.86,7.86,0,0,1,3.39.74,8.68,8.68,0,0,1,2.68,2A9.31,9.31,0,0,1,87.12,64a8.44,8.44,0,0,1,.62,3.14,9,9,0,0,1-3.93,7.42,7.59,7.59,0,0,1-4.32,1.25H75.4v7.69ZM75.4,69.85H79a1.54,1.54,0,0,0,.81-.25,1.83,1.83,0,0,0,.65-.85,3.9,3.9,0,0,0,.27-1.58,3.61,3.61,0,0,0-.3-1.64,1.77,1.77,0,0,0-1.61-1H75.4Z"/><path d="M94.44,58.49h7.69l8,25h-7l-1.29-4.91H94.75l-1.3,4.91h-7ZM100.61,74l-2.33-8.81L96,74Z"/><path d="M112.17,83.53v-25h11.5a7.78,7.78,0,0,1,3.38.74,8.56,8.56,0,0,1,2.68,2A9.34,9.34,0,0,1,131.48,64a8.43,8.43,0,0,1,.61,3.14,9.22,9.22,0,0,1-.42,2.78,8.42,8.42,0,0,1-1.23,2.45,8.62,8.62,0,0,1-1.94,1.92l5.29,9.21h-7.55l-4.41-7.69h-2.78v7.69Zm6.88-13.68h4.33a1.29,1.29,0,0,0,.82-.32,2.55,2.55,0,0,0,.65-.92,3.67,3.67,0,0,0,.26-1.44,3.21,3.21,0,0,0-.3-1.47,2.39,2.39,0,0,0-.74-.9,1.47,1.47,0,0,0-.86-.31h-4.16Z"/><path d="M136,83.53v-25h6.88V68l7.61-9.52h7.76l-9.1,11.21,9.73,13.83H151l-6.21-9.21-1.9,2v7.23Z"/><path d="M160.3,83.53v-25h6.87v25Z"/><path d="M178.35,71.22V83.53h-6.88v-25h5.36l10,12.73V58.49h6.88v25h-5.47Z"/><path d="M208.88,83.7a12.69,12.69,0,0,1-4.63-.86,11.44,11.44,0,0,1-3.9-2.54,12,12,0,0,1-2.66-4.06,14.23,14.23,0,0,1-1-5.44,12,12,0,0,1,1-4.9,12.56,12.56,0,0,1,2.73-4,12.43,12.43,0,0,1,4.07-2.66,13.07,13.07,0,0,1,5-1,12.8,12.8,0,0,1,6.14,1.46,9.58,9.58,0,0,1,4.09,4l-5.11,3.91a5.9,5.9,0,0,0-2.22-2.38,6.05,6.05,0,0,0-3.14-.89,5.09,5.09,0,0,0-2.26.49,5.63,5.63,0,0,0-1.78,1.37,6.12,6.12,0,0,0-1.16,2.1A8.38,8.38,0,0,0,203.7,71a8.06,8.06,0,0,0,.42,2.68,6.38,6.38,0,0,0,1.19,2.07,5.34,5.34,0,0,0,1.81,1.34,5.81,5.81,0,0,0,2.36.47,6.45,6.45,0,0,0,3.18-.83,9.38,9.38,0,0,0,2.75-2.34v6.7A9.42,9.42,0,0,1,208.88,83.7Zm6.17-8.57h-4.61V70.2h10.29V83.53h-5.68Z"/></svg>